<?xml version="1.0" encoding="UTF-8" standalone="no"?>
<!DOCTYPE svg PUBLIC "-//W3C//DTD SVG 1.1//EN" "http://www.w3.org/Graphics/SVG/1.1/DTD/svg11.dtd">
<svg width="1117px" height="201px" version="1.1" xmlns="http://www.w3.org/2000/svg" xmlns:xlink="http://www.w3.org/1999/xlink" xml:space="preserve" xmlns:serif="http://www.serif.com/" style="fill-rule:evenodd;clip-rule:evenodd;stroke-linejoin:round;stroke-miterlimit:2;">
    <g transform="matrix(1,0,0,1,-2621.56,-859.81)">
        <g transform="matrix(1,0,0,1,2220,0)">
            <g transform="matrix(1,0,0,1,31.5589,260.607)">
                <g transform="matrix(0.385346,0,0,0.385346,123.378,337.168)">
                    <path d="M1240,680L1240,1200L1120,1200L1120,920L640,920L640,680L1240,680ZM720,760L720,840L1160,840L1160,760L720,760Z" style="fill:rgb(244,194,67);"/>
                </g>
                <g transform="matrix(1.32624,0,0,1.32624,-136.328,-224.14)">
                    <g transform="matrix(97.7232,0,0,97.7232,610,690)">
                        <path d="M0.511,-0.692C0.514,-0.697 0.519,-0.7 0.525,-0.7L0.642,-0.7C0.645,-0.7 0.648,-0.699 0.651,-0.697C0.653,-0.694 0.654,-0.691 0.654,-0.688L0.654,-0.012C0.654,-0.009 0.653,-0.006 0.651,-0.004C0.648,-0.001 0.645,-0 0.642,-0L0.525,-0C0.522,-0 0.519,-0.001 0.517,-0.004C0.514,-0.006 0.513,-0.009 0.513,-0.012L0.513,-0.453C0.513,-0.456 0.512,-0.457 0.511,-0.457C0.51,-0.457 0.508,-0.456 0.507,-0.454L0.401,-0.288C0.398,-0.283 0.393,-0.28 0.387,-0.28L0.328,-0.28C0.322,-0.28 0.317,-0.283 0.314,-0.288L0.208,-0.454C0.207,-0.456 0.205,-0.457 0.204,-0.457C0.203,-0.456 0.202,-0.455 0.202,-0.452L0.202,-0.012C0.202,-0.009 0.201,-0.006 0.199,-0.004C0.196,-0.001 0.193,-0 0.19,-0L0.073,-0C0.07,-0 0.067,-0.001 0.065,-0.004C0.062,-0.006 0.061,-0.009 0.061,-0.012L0.061,-0.688C0.061,-0.691 0.062,-0.694 0.065,-0.697C0.067,-0.699 0.07,-0.7 0.073,-0.7L0.19,-0.7C0.196,-0.7 0.201,-0.697 0.204,-0.692L0.354,-0.459C0.356,-0.455 0.358,-0.455 0.36,-0.459L0.511,-0.692Z" style="fill:rgb(244,194,67);fill-rule:nonzero;"/>
                    </g>
                    <g transform="matrix(97.7232,0,0,97.7232,679.872,690)">
                        <path d="M0.506,-0C0.499,-0 0.495,-0.003 0.493,-0.01L0.463,-0.108C0.462,-0.111 0.46,-0.112 0.458,-0.112L0.212,-0.112C0.21,-0.112 0.208,-0.111 0.207,-0.108L0.178,-0.01C0.176,-0.003 0.172,-0 0.165,-0L0.038,-0C0.034,-0 0.031,-0.001 0.029,-0.004C0.027,-0.006 0.027,-0.009 0.028,-0.014L0.244,-0.69C0.246,-0.697 0.25,-0.7 0.257,-0.7L0.414,-0.7C0.421,-0.7 0.425,-0.697 0.427,-0.69L0.643,-0.014C0.644,-0.013 0.644,-0.011 0.644,-0.009C0.644,-0.003 0.64,-0 0.633,-0L0.506,-0ZM0.243,-0.227C0.242,-0.223 0.244,-0.221 0.247,-0.221L0.423,-0.221C0.427,-0.221 0.428,-0.223 0.427,-0.227L0.337,-0.524C0.336,-0.527 0.335,-0.528 0.334,-0.528C0.333,-0.527 0.332,-0.526 0.331,-0.524L0.243,-0.227Z" style="fill:rgb(244,194,67);fill-rule:nonzero;"/>
                    </g>
                    <g transform="matrix(97.7232,0,0,97.7232,737.04,690)">
                        <path d="M0.544,-0.7C0.547,-0.7 0.55,-0.699 0.553,-0.697C0.555,-0.694 0.556,-0.691 0.556,-0.688L0.556,-0.59C0.556,-0.587 0.555,-0.584 0.553,-0.582C0.55,-0.579 0.547,-0.578 0.544,-0.578L0.365,-0.578C0.362,-0.578 0.36,-0.576 0.36,-0.573L0.36,-0.012C0.36,-0.009 0.359,-0.006 0.357,-0.004C0.354,-0.001 0.351,-0 0.348,-0L0.231,-0C0.228,-0 0.225,-0.001 0.223,-0.004C0.22,-0.006 0.219,-0.009 0.219,-0.012L0.219,-0.573C0.219,-0.576 0.217,-0.578 0.214,-0.578L0.04,-0.578C0.037,-0.578 0.034,-0.579 0.032,-0.582C0.029,-0.584 0.028,-0.587 0.028,-0.59L0.028,-0.688C0.028,-0.691 0.029,-0.694 0.032,-0.697C0.034,-0.699 0.037,-0.7 0.04,-0.7L0.544,-0.7Z" style="fill:rgb(244,194,67);fill-rule:nonzero;"/>
                    </g>
                    <g transform="matrix(97.7232,0,0,97.7232,794.208,690)">
                        <path d="M0.445,-0C0.438,-0 0.434,-0.003 0.431,-0.009L0.306,-0.286C0.305,-0.289 0.303,-0.29 0.3,-0.29L0.207,-0.29C0.204,-0.29 0.202,-0.288 0.202,-0.285L0.202,-0.012C0.202,-0.009 0.201,-0.006 0.199,-0.004C0.196,-0.001 0.193,-0 0.19,-0L0.073,-0C0.07,-0 0.067,-0.001 0.065,-0.004C0.062,-0.006 0.061,-0.009 0.061,-0.012L0.061,-0.688C0.061,-0.691 0.062,-0.694 0.065,-0.697C0.067,-0.699 0.07,-0.7 0.073,-0.7L0.359,-0.7C0.402,-0.7 0.439,-0.691 0.472,-0.674C0.504,-0.657 0.529,-0.632 0.547,-0.6C0.564,-0.568 0.573,-0.531 0.573,-0.489C0.573,-0.444 0.562,-0.405 0.539,-0.373C0.516,-0.34 0.485,-0.317 0.444,-0.304C0.441,-0.303 0.44,-0.3 0.441,-0.297L0.577,-0.014C0.578,-0.011 0.579,-0.009 0.579,-0.008C0.579,-0.003 0.575,-0 0.568,-0L0.445,-0ZM0.207,-0.579C0.204,-0.579 0.202,-0.577 0.202,-0.574L0.202,-0.403C0.202,-0.4 0.204,-0.398 0.207,-0.398L0.338,-0.398C0.366,-0.398 0.389,-0.406 0.407,-0.423C0.424,-0.44 0.433,-0.461 0.433,-0.488C0.433,-0.515 0.424,-0.537 0.407,-0.554C0.389,-0.571 0.366,-0.579 0.338,-0.579L0.207,-0.579Z" style="fill:rgb(244,194,67);fill-rule:nonzero;"/>
                    </g>
                    <g transform="matrix(97.7232,0,0,97.7232,855.676,690)">
                        <path d="M0.506,-0C0.499,-0 0.495,-0.003 0.493,-0.01L0.463,-0.108C0.462,-0.111 0.46,-0.112 0.458,-0.112L0.212,-0.112C0.21,-0.112 0.208,-0.111 0.207,-0.108L0.178,-0.01C0.176,-0.003 0.172,-0 0.165,-0L0.038,-0C0.034,-0 0.031,-0.001 0.029,-0.004C0.027,-0.006 0.027,-0.009 0.028,-0.014L0.244,-0.69C0.246,-0.697 0.25,-0.7 0.257,-0.7L0.414,-0.7C0.421,-0.7 0.425,-0.697 0.427,-0.69L0.643,-0.014C0.644,-0.013 0.644,-0.011 0.644,-0.009C0.644,-0.003 0.64,-0 0.633,-0L0.506,-0ZM0.243,-0.227C0.242,-0.223 0.244,-0.221 0.247,-0.221L0.423,-0.221C0.427,-0.221 0.428,-0.223 0.427,-0.227L0.337,-0.524C0.336,-0.527 0.335,-0.528 0.334,-0.528C0.333,-0.527 0.332,-0.526 0.331,-0.524L0.243,-0.227Z" style="fill:rgb(244,194,67);fill-rule:nonzero;"/>
                    </g>
                    <g transform="matrix(97.7232,0,0,97.7232,921.249,690)">
                        <path d="M0.073,-0C0.07,-0 0.067,-0.001 0.065,-0.004C0.062,-0.006 0.061,-0.009 0.061,-0.012L0.061,-0.688C0.061,-0.691 0.062,-0.694 0.065,-0.697C0.067,-0.699 0.07,-0.7 0.073,-0.7L0.19,-0.7C0.193,-0.7 0.196,-0.699 0.199,-0.697C0.201,-0.694 0.202,-0.691 0.202,-0.688L0.202,-0.408C0.202,-0.406 0.203,-0.405 0.204,-0.405C0.205,-0.404 0.207,-0.405 0.208,-0.406L0.439,-0.693C0.443,-0.698 0.448,-0.7 0.454,-0.7L0.586,-0.7C0.591,-0.7 0.595,-0.699 0.596,-0.696C0.597,-0.693 0.597,-0.689 0.594,-0.685L0.371,-0.4C0.369,-0.397 0.369,-0.395 0.37,-0.393L0.606,-0.014C0.607,-0.01 0.608,-0.008 0.608,-0.007C0.608,-0.002 0.605,-0 0.598,-0L0.466,-0C0.459,-0 0.455,-0.003 0.452,-0.008L0.274,-0.296C0.273,-0.297 0.272,-0.298 0.271,-0.298C0.27,-0.298 0.268,-0.297 0.267,-0.296L0.204,-0.217C0.203,-0.214 0.202,-0.212 0.202,-0.211L0.202,-0.012C0.202,-0.009 0.201,-0.006 0.199,-0.004C0.196,-0.001 0.193,-0 0.19,-0L0.073,-0Z" style="fill:rgb(244,194,67);fill-rule:nonzero;"/>
                    </g>
                    <g transform="matrix(97.7232,0,0,97.7232,983.498,690)">
                        <path d="M0.506,-0C0.499,-0 0.495,-0.003 0.493,-0.01L0.463,-0.108C0.462,-0.111 0.46,-0.112 0.458,-0.112L0.212,-0.112C0.21,-0.112 0.208,-0.111 0.207,-0.108L0.178,-0.01C0.176,-0.003 0.172,-0 0.165,-0L0.038,-0C0.034,-0 0.031,-0.001 0.029,-0.004C0.027,-0.006 0.027,-0.009 0.028,-0.014L0.244,-0.69C0.246,-0.697 0.25,-0.7 0.257,-0.7L0.414,-0.7C0.421,-0.7 0.425,-0.697 0.427,-0.69L0.643,-0.014C0.644,-0.013 0.644,-0.011 0.644,-0.009C0.644,-0.003 0.64,-0 0.633,-0L0.506,-0ZM0.243,-0.227C0.242,-0.223 0.244,-0.221 0.247,-0.221L0.423,-0.221C0.427,-0.221 0.428,-0.223 0.427,-0.227L0.337,-0.524C0.336,-0.527 0.335,-0.528 0.334,-0.528C0.333,-0.527 0.332,-0.526 0.331,-0.524L0.243,-0.227Z" style="fill:rgb(244,194,67);fill-rule:nonzero;"/>
                    </g>
                </g>
                <g transform="matrix(1,0,0,1,-25.945,18.3012)">
                    <g transform="matrix(116.568,0,0,116.568,700,780)">
                        <path d="M0.35,-0.701C0.394,-0.701 0.433,-0.692 0.466,-0.674C0.499,-0.656 0.525,-0.631 0.544,-0.598C0.562,-0.565 0.571,-0.527 0.571,-0.484C0.571,-0.442 0.562,-0.405 0.543,-0.373C0.524,-0.341 0.497,-0.316 0.463,-0.299C0.428,-0.281 0.389,-0.272 0.344,-0.272L0.202,-0.272C0.199,-0.272 0.197,-0.27 0.197,-0.267L0.197,-0.012C0.197,-0.009 0.196,-0.006 0.194,-0.004C0.191,-0.001 0.188,-0 0.185,-0L0.068,-0C0.065,-0 0.062,-0.001 0.06,-0.004C0.057,-0.006 0.056,-0.009 0.056,-0.012L0.056,-0.689C0.056,-0.692 0.057,-0.695 0.06,-0.698C0.062,-0.7 0.065,-0.701 0.068,-0.701L0.35,-0.701ZM0.329,-0.385C0.36,-0.385 0.384,-0.394 0.403,-0.412C0.422,-0.429 0.431,-0.452 0.431,-0.481C0.431,-0.51 0.422,-0.534 0.403,-0.552C0.384,-0.57 0.36,-0.579 0.329,-0.579L0.202,-0.579C0.199,-0.579 0.197,-0.577 0.197,-0.574L0.197,-0.39C0.197,-0.387 0.199,-0.385 0.202,-0.385L0.329,-0.385Z" style="fill:rgb(244,194,67);fill-rule:nonzero;"/>
                    </g>
                    <g transform="matrix(116.568,0,0,116.568,769.591,780)">
                        <path d="M0.445,-0C0.438,-0 0.434,-0.003 0.431,-0.009L0.306,-0.286C0.305,-0.289 0.303,-0.29 0.3,-0.29L0.207,-0.29C0.204,-0.29 0.202,-0.288 0.202,-0.285L0.202,-0.012C0.202,-0.009 0.201,-0.006 0.199,-0.004C0.196,-0.001 0.193,-0 0.19,-0L0.073,-0C0.07,-0 0.067,-0.001 0.065,-0.004C0.062,-0.006 0.061,-0.009 0.061,-0.012L0.061,-0.688C0.061,-0.691 0.062,-0.694 0.065,-0.697C0.067,-0.699 0.07,-0.7 0.073,-0.7L0.359,-0.7C0.402,-0.7 0.439,-0.691 0.472,-0.674C0.504,-0.657 0.529,-0.632 0.547,-0.6C0.564,-0.568 0.573,-0.531 0.573,-0.489C0.573,-0.444 0.562,-0.405 0.539,-0.373C0.516,-0.34 0.485,-0.317 0.444,-0.304C0.441,-0.303 0.44,-0.3 0.441,-0.297L0.577,-0.014C0.578,-0.011 0.579,-0.009 0.579,-0.008C0.579,-0.003 0.575,-0 0.568,-0L0.445,-0ZM0.207,-0.579C0.204,-0.579 0.202,-0.577 0.202,-0.574L0.202,-0.403C0.202,-0.4 0.204,-0.398 0.207,-0.398L0.338,-0.398C0.366,-0.398 0.389,-0.406 0.407,-0.423C0.424,-0.44 0.433,-0.461 0.433,-0.488C0.433,-0.515 0.424,-0.537 0.407,-0.554C0.389,-0.571 0.366,-0.579 0.338,-0.579L0.207,-0.579Z" style="fill:rgb(244,194,67);fill-rule:nonzero;"/>
                    </g>
                    <g transform="matrix(116.568,0,0,116.568,841.164,780)">
                        <path d="M0.31,0.011C0.258,0.011 0.212,0 0.173,-0.021C0.133,-0.042 0.102,-0.072 0.08,-0.111C0.058,-0.149 0.047,-0.193 0.047,-0.243L0.047,-0.457C0.047,-0.506 0.058,-0.55 0.08,-0.588C0.102,-0.626 0.133,-0.656 0.173,-0.677C0.212,-0.697 0.258,-0.708 0.31,-0.708C0.363,-0.708 0.409,-0.697 0.449,-0.677C0.488,-0.656 0.519,-0.626 0.541,-0.588C0.563,-0.55 0.574,-0.506 0.574,-0.457L0.574,-0.243C0.574,-0.193 0.563,-0.149 0.541,-0.11C0.519,-0.071 0.488,-0.042 0.449,-0.021C0.409,0 0.363,0.011 0.31,0.011ZM0.31,-0.11C0.347,-0.11 0.376,-0.122 0.399,-0.145C0.422,-0.168 0.433,-0.199 0.433,-0.238L0.433,-0.458C0.433,-0.497 0.422,-0.528 0.4,-0.552C0.377,-0.575 0.347,-0.587 0.31,-0.587C0.273,-0.587 0.244,-0.575 0.222,-0.552C0.199,-0.528 0.188,-0.497 0.188,-0.458L0.188,-0.238C0.188,-0.199 0.199,-0.168 0.222,-0.145C0.244,-0.122 0.273,-0.11 0.31,-0.11Z" style="fill:rgb(244,194,67);fill-rule:nonzero;"/>
                    </g>
                    <g transform="matrix(116.568,0,0,116.568,913.552,780)">
                        <path d="M0.073,-0C0.07,-0 0.067,-0.001 0.065,-0.004C0.062,-0.006 0.061,-0.009 0.061,-0.012L0.061,-0.688C0.061,-0.691 0.062,-0.694 0.065,-0.697C0.067,-0.699 0.07,-0.7 0.073,-0.7L0.323,-0.7C0.373,-0.7 0.417,-0.691 0.455,-0.674C0.492,-0.656 0.521,-0.631 0.542,-0.599C0.563,-0.567 0.573,-0.53 0.573,-0.488L0.573,-0.212C0.573,-0.17 0.563,-0.133 0.542,-0.101C0.521,-0.069 0.492,-0.044 0.455,-0.027C0.417,-0.009 0.373,-0 0.323,-0L0.073,-0ZM0.202,-0.126C0.202,-0.123 0.204,-0.121 0.207,-0.121L0.328,-0.121C0.359,-0.121 0.384,-0.131 0.403,-0.152C0.422,-0.173 0.431,-0.2 0.432,-0.235L0.432,-0.465C0.432,-0.5 0.423,-0.527 0.404,-0.548C0.385,-0.569 0.359,-0.579 0.327,-0.579L0.207,-0.579C0.204,-0.579 0.202,-0.577 0.202,-0.574L0.202,-0.126Z" style="fill:rgb(244,194,67);fill-rule:nonzero;"/>
                    </g>
                    <g transform="matrix(116.568,0,0,116.568,985.591,780)">
                        <path d="M0.315,0.008C0.264,0.008 0.219,-0.002 0.18,-0.022C0.14,-0.042 0.11,-0.07 0.089,-0.107C0.067,-0.143 0.056,-0.185 0.056,-0.232L0.056,-0.688C0.056,-0.691 0.057,-0.694 0.06,-0.697C0.062,-0.699 0.065,-0.7 0.068,-0.7L0.185,-0.7C0.188,-0.7 0.191,-0.699 0.194,-0.697C0.196,-0.694 0.197,-0.691 0.197,-0.688L0.197,-0.231C0.197,-0.196 0.208,-0.167 0.23,-0.146C0.251,-0.124 0.28,-0.113 0.315,-0.113C0.35,-0.113 0.379,-0.124 0.401,-0.146C0.422,-0.167 0.433,-0.196 0.433,-0.231L0.433,-0.688C0.433,-0.691 0.434,-0.694 0.437,-0.697C0.439,-0.699 0.442,-0.7 0.445,-0.7L0.562,-0.7C0.565,-0.7 0.568,-0.699 0.571,-0.697C0.573,-0.694 0.574,-0.691 0.574,-0.688L0.574,-0.232C0.574,-0.185 0.563,-0.143 0.542,-0.107C0.52,-0.07 0.49,-0.042 0.451,-0.022C0.412,-0.002 0.366,0.008 0.315,0.008Z" style="fill:rgb(244,194,67);fill-rule:nonzero;"/>
                    </g>
                    <g transform="matrix(116.568,0,0,116.568,1058.21,780)">
                        <path d="M0.307,0.008C0.255,0.008 0.209,-0.002 0.17,-0.023C0.131,-0.043 0.1,-0.071 0.079,-0.108C0.058,-0.145 0.047,-0.187 0.047,-0.235L0.047,-0.466C0.047,-0.514 0.058,-0.556 0.079,-0.593C0.1,-0.63 0.131,-0.658 0.17,-0.678C0.209,-0.698 0.255,-0.708 0.307,-0.708C0.358,-0.708 0.404,-0.699 0.443,-0.68C0.482,-0.661 0.512,-0.634 0.534,-0.599C0.555,-0.564 0.566,-0.523 0.566,-0.477C0.566,-0.471 0.562,-0.467 0.554,-0.466L0.437,-0.459L0.435,-0.459C0.428,-0.459 0.425,-0.463 0.425,-0.47C0.425,-0.505 0.414,-0.534 0.393,-0.555C0.371,-0.576 0.342,-0.587 0.307,-0.587C0.271,-0.587 0.242,-0.576 0.221,-0.555C0.199,-0.534 0.188,-0.505 0.188,-0.47L0.188,-0.229C0.188,-0.194 0.199,-0.166 0.221,-0.145C0.242,-0.124 0.271,-0.113 0.307,-0.113C0.342,-0.113 0.371,-0.124 0.393,-0.145C0.414,-0.166 0.425,-0.194 0.425,-0.229C0.425,-0.236 0.429,-0.24 0.437,-0.24L0.554,-0.235C0.557,-0.235 0.56,-0.234 0.563,-0.232C0.565,-0.23 0.566,-0.228 0.566,-0.225C0.566,-0.179 0.555,-0.138 0.534,-0.103C0.512,-0.068 0.482,-0.04 0.443,-0.021C0.404,-0.002 0.358,0.008 0.307,0.008Z" style="fill:rgb(244,194,67);fill-rule:nonzero;"/>
                    </g>
                    <g transform="matrix(116.568,0,0,116.568,1129.09,780)">
                        <path d="M0.307,0.008C0.255,0.008 0.209,-0.002 0.17,-0.023C0.131,-0.043 0.1,-0.071 0.079,-0.108C0.058,-0.145 0.047,-0.187 0.047,-0.235L0.047,-0.466C0.047,-0.514 0.058,-0.556 0.079,-0.593C0.1,-0.63 0.131,-0.658 0.17,-0.678C0.209,-0.698 0.255,-0.708 0.307,-0.708C0.358,-0.708 0.404,-0.699 0.443,-0.68C0.482,-0.661 0.512,-0.634 0.534,-0.599C0.555,-0.564 0.566,-0.523 0.566,-0.477C0.566,-0.471 0.562,-0.467 0.554,-0.466L0.437,-0.459L0.435,-0.459C0.428,-0.459 0.425,-0.463 0.425,-0.47C0.425,-0.505 0.414,-0.534 0.393,-0.555C0.371,-0.576 0.342,-0.587 0.307,-0.587C0.271,-0.587 0.242,-0.576 0.221,-0.555C0.199,-0.534 0.188,-0.505 0.188,-0.47L0.188,-0.229C0.188,-0.194 0.199,-0.166 0.221,-0.145C0.242,-0.124 0.271,-0.113 0.307,-0.113C0.342,-0.113 0.371,-0.124 0.393,-0.145C0.414,-0.166 0.425,-0.194 0.425,-0.229C0.425,-0.236 0.429,-0.24 0.437,-0.24L0.554,-0.235C0.557,-0.235 0.56,-0.234 0.563,-0.232C0.565,-0.23 0.566,-0.228 0.566,-0.225C0.566,-0.179 0.555,-0.138 0.534,-0.103C0.512,-0.068 0.482,-0.04 0.443,-0.021C0.404,-0.002 0.358,0.008 0.307,0.008Z" style="fill:rgb(244,194,67);fill-rule:nonzero;"/>
                    </g>
                    <g transform="matrix(116.568,0,0,116.568,1199.96,780)">
                        <path d="M0.073,-0C0.07,-0 0.067,-0.001 0.065,-0.004C0.062,-0.006 0.061,-0.009 0.061,-0.012L0.061,-0.688C0.061,-0.691 0.062,-0.694 0.065,-0.697C0.067,-0.699 0.07,-0.7 0.073,-0.7L0.19,-0.7C0.193,-0.7 0.196,-0.699 0.199,-0.697C0.201,-0.694 0.202,-0.691 0.202,-0.688L0.202,-0.012C0.202,-0.009 0.201,-0.006 0.199,-0.004C0.196,-0.001 0.193,-0 0.19,-0L0.073,-0Z" style="fill:rgb(244,194,67);fill-rule:nonzero;"/>
                    </g>
                    <g transform="matrix(116.568,0,0,116.568,1230.62,780)">
                        <path d="M0.31,0.011C0.258,0.011 0.212,0 0.173,-0.021C0.133,-0.042 0.102,-0.072 0.08,-0.111C0.058,-0.149 0.047,-0.193 0.047,-0.243L0.047,-0.457C0.047,-0.506 0.058,-0.55 0.08,-0.588C0.102,-0.626 0.133,-0.656 0.173,-0.677C0.212,-0.697 0.258,-0.708 0.31,-0.708C0.363,-0.708 0.409,-0.697 0.449,-0.677C0.488,-0.656 0.519,-0.626 0.541,-0.588C0.563,-0.55 0.574,-0.506 0.574,-0.457L0.574,-0.243C0.574,-0.193 0.563,-0.149 0.541,-0.11C0.519,-0.071 0.488,-0.042 0.449,-0.021C0.409,0 0.363,0.011 0.31,0.011ZM0.31,-0.11C0.347,-0.11 0.376,-0.122 0.399,-0.145C0.422,-0.168 0.433,-0.199 0.433,-0.238L0.433,-0.458C0.433,-0.497 0.422,-0.528 0.4,-0.552C0.377,-0.575 0.347,-0.587 0.31,-0.587C0.273,-0.587 0.244,-0.575 0.222,-0.552C0.199,-0.528 0.188,-0.497 0.188,-0.458L0.188,-0.238C0.188,-0.199 0.199,-0.168 0.222,-0.145C0.244,-0.122 0.273,-0.11 0.31,-0.11Z" style="fill:rgb(244,194,67);fill-rule:nonzero;"/>
                    </g>
                    <g transform="matrix(116.568,0,0,116.568,1303.01,780)">
                        <path d="M0.463,-0.688C0.463,-0.691 0.464,-0.694 0.467,-0.697C0.469,-0.699 0.472,-0.7 0.475,-0.7L0.592,-0.7C0.595,-0.7 0.598,-0.699 0.601,-0.697C0.603,-0.694 0.604,-0.691 0.604,-0.688L0.604,-0.012C0.604,-0.009 0.603,-0.006 0.601,-0.004C0.598,-0.001 0.595,-0 0.592,-0L0.479,-0C0.472,-0 0.468,-0.003 0.465,-0.008L0.206,-0.436C0.205,-0.438 0.203,-0.439 0.202,-0.439C0.201,-0.438 0.2,-0.437 0.2,-0.434L0.202,-0.012C0.202,-0.009 0.201,-0.006 0.199,-0.004C0.196,-0.001 0.193,-0 0.19,-0L0.073,-0C0.07,-0 0.067,-0.001 0.065,-0.004C0.062,-0.006 0.061,-0.009 0.061,-0.012L0.061,-0.688C0.061,-0.691 0.062,-0.694 0.065,-0.697C0.067,-0.699 0.07,-0.7 0.073,-0.7L0.186,-0.7C0.193,-0.7 0.197,-0.697 0.2,-0.692L0.458,-0.266C0.459,-0.264 0.461,-0.263 0.462,-0.264C0.463,-0.264 0.464,-0.265 0.464,-0.268L0.463,-0.688Z" style="fill:rgb(244,194,67);fill-rule:nonzero;"/>
                    </g>
                    <g transform="matrix(116.568,0,0,116.568,1379.82,780)">
                        <path d="M0.547,-0.591C0.547,-0.588 0.546,-0.585 0.544,-0.583C0.541,-0.58 0.538,-0.579 0.535,-0.579L0.207,-0.579C0.204,-0.579 0.202,-0.577 0.202,-0.574L0.202,-0.419C0.202,-0.416 0.204,-0.414 0.207,-0.414L0.422,-0.414C0.425,-0.414 0.428,-0.413 0.431,-0.411C0.433,-0.408 0.434,-0.405 0.434,-0.402L0.434,-0.305C0.434,-0.302 0.433,-0.299 0.431,-0.297C0.428,-0.294 0.425,-0.293 0.422,-0.293L0.207,-0.293C0.204,-0.293 0.202,-0.291 0.202,-0.288L0.202,-0.126C0.202,-0.123 0.204,-0.121 0.207,-0.121L0.535,-0.121C0.538,-0.121 0.541,-0.12 0.544,-0.118C0.546,-0.115 0.547,-0.112 0.547,-0.109L0.547,-0.012C0.547,-0.009 0.546,-0.006 0.544,-0.004C0.541,-0.001 0.538,-0 0.535,-0L0.073,-0C0.07,-0 0.067,-0.001 0.065,-0.004C0.062,-0.006 0.061,-0.009 0.061,-0.012L0.061,-0.688C0.061,-0.691 0.062,-0.694 0.065,-0.697C0.067,-0.699 0.07,-0.7 0.073,-0.7L0.535,-0.7C0.538,-0.7 0.541,-0.699 0.544,-0.697C0.546,-0.694 0.547,-0.691 0.547,-0.688L0.547,-0.591Z" style="fill:rgb(244,194,67);fill-rule:nonzero;"/>
                    </g>
                    <g transform="matrix(116.568,0,0,116.568,1447.9,780)">
                        <path d="M0.301,0.008C0.248,0.008 0.201,-0.001 0.161,-0.018C0.121,-0.035 0.09,-0.059 0.069,-0.091C0.047,-0.122 0.036,-0.159 0.036,-0.201L0.036,-0.223C0.036,-0.226 0.037,-0.229 0.04,-0.232C0.042,-0.234 0.045,-0.235 0.048,-0.235L0.162,-0.235C0.165,-0.235 0.168,-0.234 0.171,-0.232C0.173,-0.229 0.174,-0.226 0.174,-0.223L0.174,-0.208C0.174,-0.181 0.186,-0.159 0.211,-0.141C0.236,-0.122 0.269,-0.113 0.311,-0.113C0.346,-0.113 0.373,-0.121 0.39,-0.136C0.407,-0.151 0.416,-0.169 0.416,-0.191C0.416,-0.207 0.411,-0.221 0.4,-0.232C0.389,-0.243 0.375,-0.252 0.357,-0.261C0.338,-0.269 0.309,-0.28 0.269,-0.295C0.224,-0.31 0.187,-0.326 0.156,-0.342C0.125,-0.358 0.098,-0.38 0.078,-0.408C0.056,-0.435 0.046,-0.469 0.046,-0.51C0.046,-0.55 0.056,-0.585 0.077,-0.615C0.098,-0.645 0.126,-0.668 0.163,-0.684C0.2,-0.7 0.242,-0.708 0.29,-0.708C0.341,-0.708 0.386,-0.699 0.426,-0.681C0.465,-0.663 0.496,-0.638 0.519,-0.606C0.541,-0.573 0.552,-0.536 0.552,-0.493L0.552,-0.478C0.552,-0.475 0.551,-0.472 0.549,-0.47C0.546,-0.467 0.543,-0.466 0.54,-0.466L0.425,-0.466C0.422,-0.466 0.419,-0.467 0.417,-0.47C0.414,-0.472 0.413,-0.475 0.413,-0.478L0.413,-0.486C0.413,-0.514 0.402,-0.538 0.379,-0.558C0.356,-0.577 0.324,-0.587 0.284,-0.587C0.253,-0.587 0.228,-0.58 0.211,-0.567C0.193,-0.554 0.184,-0.535 0.184,-0.512C0.184,-0.495 0.189,-0.481 0.2,-0.47C0.21,-0.459 0.225,-0.448 0.246,-0.44C0.266,-0.431 0.297,-0.418 0.34,-0.403C0.387,-0.386 0.425,-0.37 0.452,-0.357C0.478,-0.344 0.503,-0.324 0.525,-0.298C0.546,-0.271 0.557,-0.237 0.557,-0.195C0.557,-0.132 0.534,-0.083 0.488,-0.047C0.442,-0.01 0.38,0.008 0.301,0.008Z" style="fill:rgb(244,194,67);fill-rule:nonzero;"/>
                    </g>
                </g>
            </g>
        </g>
    </g>
</svg>
